<?xml version="1.0" encoding="UTF-8" standalone="no"?>
<!-- Created with Inkscape (http://www.inkscape.org/) -->

<svg
   width="32"
   height="32"
   viewBox="0 0 8.4666665 8.4666666"
   version="1.1"
   id="svg1"
   xml:space="preserve"
   inkscape:version="1.4.4 (dcaf3e7d9e, 2026-05-05)"
   sodipodi:docname="favicon.svg"
   inkscape:export-filename="favicon-32.ico"
   inkscape:export-xdpi="96"
   inkscape:export-ydpi="96"
   xmlns:inkscape="http://www.inkscape.org/namespaces/inkscape"
   xmlns:sodipodi="http://sodipodi.sourceforge.net/DTD/sodipodi-0.dtd"
   xmlns:xlink="http://www.w3.org/1999/xlink"
   xmlns="http://www.w3.org/2000/svg"
   xmlns:svg="http://www.w3.org/2000/svg"><sodipodi:namedview
     id="namedview1"
     pagecolor="#ffffff"
     bordercolor="#000000"
     borderopacity="0.25"
     inkscape:showpageshadow="2"
     inkscape:pageopacity="0.0"
     inkscape:pagecheckerboard="false"
     inkscape:deskcolor="#d1d1d1"
     inkscape:document-units="mm"
     showgrid="true"
     inkscape:zoom="5.6568542"
     inkscape:cx="14.318912"
     inkscape:cy="7.9549513"
     inkscape:window-width="1920"
     inkscape:window-height="1011"
     inkscape:window-x="0"
     inkscape:window-y="0"
     inkscape:window-maximized="1"
     inkscape:current-layer="layer1"><inkscape:grid
       id="grid1"
       units="px"
       originx="0"
       originy="0"
       spacingx="0.26458333"
       spacingy="0.26458333"
       empcolor="#0099e5"
       empopacity="0.30196078"
       color="#0099e5"
       opacity="0.14901961"
       empspacing="2"
       enabled="true"
       visible="true" /></sodipodi:namedview><defs
     id="defs1"><linearGradient
       id="linearGradient4"
       inkscape:collect="always"><stop
         style="stop-color:#02a6b1;stop-opacity:1;"
         offset="0"
         id="stop4" /><stop
         style="stop-color:#28a745;stop-opacity:0;"
         offset="1"
         id="stop5" /></linearGradient><linearGradient
       id="linearGradient2"
       inkscape:collect="always"><stop
         style="stop-color:#ffffff;stop-opacity:1"
         offset="0.05263157"
         id="stop2" /><stop
         style="stop-color:#878787;stop-opacity:1"
         offset="1"
         id="stop3" /></linearGradient><linearGradient
       inkscape:collect="always"
       xlink:href="#linearGradient2"
       id="linearGradient3"
       x1="2.1166666"
       y1="2.6458333"
       x2="2.1166666"
       y2="7.6729164"
       gradientUnits="userSpaceOnUse"
       spreadMethod="reflect"
       gradientTransform="translate(10.054166)" /><linearGradient
       id="linearGradient13088"><stop
         style="stop-color:#d0d2d3;stop-opacity:1;"
         offset="0"
         id="stop13084" /><stop
         style="stop-color:#95989a;stop-opacity:1;"
         offset="1"
         id="stop13086" /></linearGradient><linearGradient
       id="linearGradient3597"><stop
         style="stop-color:#03c9d6;stop-opacity:1;"
         offset="0"
         id="stop3593" /><stop
         style="stop-color:#02a6b1;stop-opacity:1;"
         offset="1"
         id="stop3595" /></linearGradient><linearGradient
       xlink:href="#linearGradient13088"
       id="linearGradient3599"
       x1="4.2333331"
       y1="0.52916664"
       x2="4.2333331"
       y2="7.9375"
       gradientUnits="userSpaceOnUse"
       gradientTransform="scale(2)" /><linearGradient
       xlink:href="#linearGradient13088"
       id="linearGradient5785"
       x1="3.7041667"
       y1="0.52916664"
       x2="3.7041667"
       y2="7.9375"
       gradientUnits="userSpaceOnUse"
       gradientTransform="scale(2)" /><linearGradient
       xlink:href="#linearGradient3597"
       id="linearGradient13090"
       x1="5.8208332"
       y1="2.697165"
       x2="5.8208332"
       y2="5.5279498"
       gradientUnits="userSpaceOnUse"
       gradientTransform="scale(2)" /><linearGradient
       inkscape:collect="always"
       xlink:href="#linearGradient13088"
       id="linearGradient1"
       gradientUnits="userSpaceOnUse"
       gradientTransform="scale(2)"
       x1="4.2333331"
       y1="0.52916664"
       x2="4.2333331"
       y2="7.9375" /><linearGradient
       inkscape:collect="always"
       xlink:href="#linearGradient4"
       id="linearGradient5"
       x1="0"
       y1="4.2333331"
       x2="33.866665"
       y2="4.2333331"
       gradientUnits="userSpaceOnUse" /></defs><g
     inkscape:label="Layer 1"
     inkscape:groupmode="layer"
     id="layer1"><rect
       style="fill:url(#linearGradient5);fill-opacity:1;stroke:none;stroke-width:0.529167;stroke-linejoin:round;stroke-dasharray:none"
       id="rect3"
       width="8.4666662"
       height="8.4666662"
       x="0"
       y="0"
       ry="0.79374999" /><path
       id="path1"
       style="fill:url(#linearGradient3);stroke:#000000;stroke-width:0.529167;stroke-linejoin:round;stroke-dasharray:none"
       d="M 10.847916,0.79374991 V 7.6729166 h 2.645833 V 5.0270832 h 3.704167 c 0.264583,-2e-7 0.529166,-0.2645835 0.529167,-0.5291666 v -3.175 c -1e-6,-0.2645834 -0.264584,-0.52916673 -0.529167,-0.52916669 z m 2.645833,1.05833329 h 2.645834 v 2.1166667 h -2.645834 z"
       sodipodi:nodetypes="cccccccccccccc" /><g
       id="layer1-6"
       transform="matrix(0.49999865,0,0,0.49999865,-10.583332,-10.583334)"><path
         id="path11619"
         style="baseline-shift:baseline;display:inline;overflow:visible;opacity:1;stroke:#000000;stroke-width:2.11667;stroke-dasharray:none;stroke-opacity:1;enable-background:accumulate;stop-color:#000000;stop-opacity:1"
         d="m 2.1177035,1.0583366 v 9.5239924 0.0021 c 5.99e-4,1.888186 1.0084862,3.639578 2.6437735,4.583712 1.6357736,0.944414 3.6579746,0.944414 5.293748,0 1.540453,-0.889381 2.523944,-2.495446 2.633438,-4.257116 L 11.636528,9.8630238 10.563722,10.928595 c -0.108894,0.99907 -0.6850945,1.894325 -1.5678667,2.403994 -0.9838168,0.568006 -2.1922256,0.568007 -3.1760422,0 -0.9838168,-0.56804 -1.5854372,-1.614247 -1.5854372,-2.75026 a 1.0583301,1.0583301 0 0 0 -0.00207,-0.06511 V 7.4083537 h 2.1177059 c 1.7409667,0 3.1750085,-1.4350754 3.1750085,-3.1760421 -10e-8,-1.7409667 -1.4340419,-3.173975 -3.1750085,-3.173975 h -0.00103 z m 2.1146054,2.1177059 h 2.1177059 c 0.5970386,-10e-8 1.0583362,0.4592304 1.0583362,1.0562691 0,0.5970386 -0.4612976,1.0583362 -1.0583362,1.0583362 h -0.00103 -2.1166723 z" /><path
         style="baseline-shift:baseline;display:inline;overflow:visible;opacity:1;stroke:#000000;stroke-width:2.11667;stroke-dasharray:none;stroke-opacity:1;enable-background:accumulate;stop-color:#000000;stop-opacity:1"
         d="M 11.642578,5.3886719 7.4472656,9.5449218 8.9375,11.048828 11.640625,8.3710938 14.345703,11.0625 15.837891,9.5624998 Z"
         id="path2590" /></g><g
       id="layer1-5"
       transform="matrix(0.49999865,0,0,0.49999865,-10.583332,-1.9870208e-7)"><path
         style="fill:none;stroke:url(#linearGradient1);stroke-width:2.11666;stroke-linecap:butt;stroke-linejoin:miter;stroke-dasharray:none;stroke-opacity:1"
         d="m 3.175,6.3500001 3.175,-2e-7 m 0,-4.2333332 H 3.175 v 8.4666663"
         id="path11619-3" /><path
         id="path3371-5"
         style="color:#000000;fill:url(#linearGradient3599);stroke-width:2;stroke-linecap:round;-inkscape-stroke:none"
         d="M 3.1760336,9.5229331 A 1.0583301,1.0583301 0 0 0 2.1177002,10.5823 c 0,1.888829 1.0079928,3.641352 2.6437662,4.585766 1.6357736,0.944414 3.6579602,0.944414 5.2937336,0 1.540452,-0.889381 2.523937,-2.495434 2.633431,-4.257104 L 11.636499,9.8629639 10.563696,10.928532 c -0.108894,0.99907 -0.6850904,1.894319 -1.5678626,2.403988 -0.9838168,0.568007 -2.192217,0.568007 -3.1760336,0 C 4.835983,12.764513 4.2343668,11.718313 4.2343668,10.5823 A 1.0583301,1.0583301 0 0 0 3.1760336,9.5229331 Z" /><path
         style="fill:none;stroke:url(#linearGradient13090);stroke-width:2.11666;stroke-linecap:butt;stroke-linejoin:miter;stroke-dasharray:none;stroke-opacity:1"
         d="m 8.1917482,10.296742 3.4499178,-3.4175755 3.44992,3.4337465"
         id="path2590-6" /><path
         style="fill:none;stroke:url(#linearGradient5785);stroke-width:2.11666;stroke-linecap:round;stroke-dasharray:none"
         id="path3377-2"
         d="M 6.3499999,2.1166666 A 2.1166666,2.1166666 0 0 1 8.4666665,4.2333331 2.1166666,2.1166666 0 0 1 6.3499999,6.3499997" /></g><g
       id="g8"
       transform="matrix(0.49999865,0,0,0.49999865,1.0533333e-6,-6.3666667e-7)"><path
         style="fill:none;stroke:#ffffff;stroke-width:2.11666;stroke-linecap:butt;stroke-linejoin:miter;stroke-dasharray:none;stroke-opacity:1"
         d="m 3.175,6.3500001 3.175,-2e-7 m 0,-4.2333332 H 3.175 v 8.4666663"
         id="path5" /><path
         id="path6"
         style="color:#000000;fill:#ffffff;stroke-width:2;stroke-linecap:round;-inkscape-stroke:none"
         d="M 3.1760336,9.5229331 A 1.0583301,1.0583301 0 0 0 2.1177002,10.5823 c 0,1.888829 1.0079928,3.641352 2.6437662,4.585766 1.6357736,0.944414 3.6579602,0.944414 5.2937336,0 1.540453,-0.889381 2.523937,-2.495434 2.633431,-4.257104 L 11.636499,9.8629639 10.563696,10.928532 c -0.108894,0.99907 -0.6850904,1.894319 -1.5678626,2.403988 -0.9838168,0.568006 -2.192217,0.568007 -3.1760336,0 C 4.835983,12.764513 4.2343668,11.718313 4.2343668,10.5823 A 1.0583301,1.0583301 0 0 0 3.1760336,9.5229331 Z" /><path
         style="fill:none;stroke:#ffffff;stroke-width:2.11666;stroke-linecap:butt;stroke-linejoin:miter;stroke-dasharray:none;stroke-opacity:1"
         d="M 8.1917482,10.296742 11.641667,6.8791665 15.091586,10.312913"
         id="path7" /><path
         style="fill:none;stroke:#ffffff;stroke-width:2.11666;stroke-linecap:round;stroke-dasharray:none"
         id="path8"
         d="M 6.3499999,2.1166666 A 2.1166666,2.1166666 0 0 1 8.4666665,4.2333331 2.1166666,2.1166666 0 0 1 6.3499999,6.3499997" /></g></g></svg>
